<?xml version="1.0" ?><svg viewBox="0 0 64 64" xmlns="http://www.w3.org/2000/svg"><title/><g data-name="Half moon" id="Half_moon"><path d="M61.4327,33.3949a.9988.9988,0,0,0-1.16.1909,19.497,19.497,0,0,1-13.9512,5.8491H46.298A19.5995,19.5995,0,0,1,35.005,3.8163a1,1,0,0,0-.4824-1.813,1.2507,1.2507,0,0,0-.4141-.0142A28.1459,28.1459,0,0,0,11.5265,46.911a1,1,0,0,0,1.3769.2212,7.965,7.965,0,0,1,4.5947-1.4541h.01a8.005,8.005,0,0,1,7.13,4.3359,7.5061,7.5061,0,0,1,.8291,2.4546,9.43,9.43,0,0,1,.1143,1.2036,1.6892,1.6892,0,0,0-.0342.3252,1,1,0,0,0,.7558.97,6.1874,6.1874,0,0,1,3.7344,2.6821,1,1,0,0,0,.7256.4565,28.6144,28.6144,0,0,0,3.374.2032h.0352a28.3269,28.3269,0,0,0,27.8008-23.87A.999.999,0,0,0,61.4327,33.3949Z" style="fill:#c3aed6"/><path d="M31.7247,56.5761a8.1568,8.1568,0,0,0-4.1621-3.3145c-.02-.3423-.06-.7061-.12-1.103a9.4521,9.4521,0,0,0-1.044-3.0913,9.9837,9.9837,0,0,0-8.8906-5.3892h-.0117a9.9555,9.9555,0,0,0-5.7383,1.814,10.1052,10.1052,0,0,0-4.19,6.6953c-.06.3877-.0986.749-.1172,1.0967a8.209,8.209,0,0,0-5.4346,7.7412,1,1,0,0,0,1,.999h.001l29-.0327a1,1,0,0,0,.999-1.0015A8.15,8.15,0,0,0,31.7247,56.5761Z" style="fill:#9883ba"/></g></svg>